<?xml version="1.0" encoding="UTF-8" standalone="no"?>
<!-- Created with Inkscape (http://www.inkscape.org/) -->

<svg
   width="820"
   height="462"
   viewBox="0 0 820 462"
   version="1.1"
   id="svg5"
   xml:space="preserve"
   inkscape:version="1.2 (dc2aedaf03, 2022-05-15)"
   sodipodi:docname="banner.svg"
   inkscape:export-filename="banner.png"
   inkscape:export-xdpi="96"
   inkscape:export-ydpi="96"
   xmlns:inkscape="http://www.inkscape.org/namespaces/inkscape"
   xmlns:sodipodi="http://sodipodi.sourceforge.net/DTD/sodipodi-0.dtd"
   xmlns:xlink="http://www.w3.org/1999/xlink"
   xmlns="http://www.w3.org/2000/svg"
   xmlns:svg="http://www.w3.org/2000/svg"><sodipodi:namedview
     id="namedview7"
     pagecolor="#505050"
     bordercolor="#ffffff"
     borderopacity="1"
     inkscape:showpageshadow="0"
     inkscape:pageopacity="0"
     inkscape:pagecheckerboard="1"
     inkscape:deskcolor="#505050"
     inkscape:document-units="px"
     showgrid="false"
     showguides="true"
     inkscape:zoom="1.021645"
     inkscape:cx="231"
     inkscape:cy="240.29873"
     inkscape:window-width="942"
     inkscape:window-height="1026"
     inkscape:window-x="0"
     inkscape:window-y="0"
     inkscape:window-maximized="1"
     inkscape:current-layer="layer1"><sodipodi:guide
       position="111.93884,134.39633"
       orientation="1,0"
       id="guide2660"
       inkscape:locked="false" /></sodipodi:namedview><defs
     id="defs2"><linearGradient
       inkscape:collect="always"
       id="linearGradient11481"><stop
         style="stop-color:#6376ca;stop-opacity:1;"
         offset="0"
         id="stop11477" /><stop
         style="stop-color:#747fd2;stop-opacity:1;"
         offset="1"
         id="stop11479" /></linearGradient><linearGradient
       inkscape:collect="always"
       xlink:href="#linearGradient11481"
       id="linearGradient11483"
       x1="602.57062"
       y1="0"
       x2="0"
       y2="346.5"
       gradientUnits="userSpaceOnUse" /></defs><g
     inkscape:label="图层 1"
     inkscape:groupmode="layer"
     id="layer1"><rect
       style="fill:#f9f9f9;fill-rule:evenodd;stroke-linejoin:round"
       id="rect271"
       width="820"
       height="462"
       x="0"
       y="0" /><path
       style="fill:url(#linearGradient11483);fill-opacity:1;stroke:none;stroke-width:1px;stroke-linecap:butt;stroke-linejoin:miter;stroke-opacity:1"
       d="M -3.0000001e-6,231 410,185.48899 820,231 V 0 H -3.0000001e-6 Z"
       id="path7160" /><circle
       style="font-variation-settings:'wght' 700;fill:#f9b259;fill-opacity:1;fill-rule:evenodd;stroke:none;stroke-width:2.144;stroke-linejoin:round;stroke-dasharray:none"
       id="path7089"
       cx="749.77118"
       cy="71.453392"
       r="35.663609" /><g
       transform="matrix(0.8735982,0,0,-0.8749982,96.356405,380.95076)"
       id="g147"><path
         d="m 120.4,329.6 c 0,-14.14 -8.573,-26.98 -25.27,-29.99 l 23.55,-27.84 2.131,2.988 42.42,59.99 v 25.27 h -68.96 c 17.55,-1.714 26.12,-16.27 26.12,-30.41"
         fill="#f3ab0d"
         id="path129" /><g
         fill="#283271"
         id="g141"><path
           d="m 132.4,267.1 31.27,43.69 v -47.98 h -34.4 z m -60.38,45.41 h 16.27 c 11.98,0 17.99,8.556 17.99,17.13 0,8.578 -6.008,16.71 -17.99,16.71 H 66.02 v -83.54 h 41.56 l -35.56,42.84 v 6.859"
           id="path131" /><path
           d="m 306.3,277.3 h 14.14 v 65.97 H 306.3 Z"
           id="path133" /><path
           d="m 351.3,303.9 c -5.585,0 -10.29,1.714 -14.14,5.563 -3.85,3.866 -6.002,8.573 -6.002,14.14 0,5.567 2.152,10.29 6.002,14.14 3.845,3.85 8.551,6.002 14.14,6.002 h 74.11 v -14.14 H 351.3 c -1.713,0 -3.009,-0.8568 -4.289,-1.714 -1.296,-0.8567 -1.714,-2.57 -1.714,-4.289 0,-1.713 0.8567,-2.988 1.714,-4.289 0.862,-1.274 2.576,-1.713 4.289,-1.713 h 53.96 c 5.563,0 10.29,-2.131 14.14,-5.981 3.85,-3.871 6.002,-8.578 6.002,-14.14 0,-5.562 -2.153,-10.29 -6.002,-14.14 -3.85,-3.85 -8.578,-6.002 -14.14,-6.002 h -74.1 v 14.58 h 74.1 c 1.719,0 3.015,0.8567 4.289,1.719 1.274,0.8567 1.714,2.549 1.714,4.262 0,1.719 -0.8567,3.015 -1.714,4.289 -0.8567,1.296 -2.57,1.719 -4.289,1.719 H 351.3"
           id="path135" /><path
           d="m 465.2,343.3 h 61.26 V 329.16 H 465.2 c -5.124,0 -9.413,-1.692 -13.28,-5.563 -3.85,-3.85 -5.563,-8.134 -5.563,-13.28 0,-5.124 1.713,-9.413 5.563,-13.28 3.871,-3.845 8.16,-5.563 13.28,-5.563 h 61.26 v -14.14 H 465.2 c -8.996,0 -16.7,3.009 -23.14,9.429 -6.42,6.425 -9.413,14.14 -9.413,23.14 0,8.99 2.993,16.71 9.413,23.13 6.442,6.838 14.14,10.27 23.14,10.27"
           id="path137" /><path
           d="m 296,277.3 -18.85,26.14 c 5.124,0.423 9.413,2.136 12.85,5.986 3.85,3.866 6.002,8.573 6.002,14.14 0,5.567 -2.152,10.29 -6.002,14.14 -3.85,3.85 -8.578,6.002 -14.14,6.002 h -74.11 v -65.97 h 14.14 v 25.7 h 43.69 l 18.85,-26.14 z m -80.11,51.83 h 59.97 c 1.719,0 3.015,-0.8567 4.289,-1.692 1.274,-0.8567 1.714,-2.576 1.714,-4.289 0,-1.714 -0.8567,-3.009 -1.714,-4.289 -0.8567,-1.296 -2.57,-1.714 -4.289,-1.714 h -59.97 v 11.98"
           id="path139" /></g><path
         d="m 597.2,277.3 -38.55,65.97 h 16.27 l 30.41,-52.25 30.41,52.25 h 16.29 L 613.46,277.3"
         fill="#f3ab0d"
         id="path143" /><path
         d="m 535.1,303.9 h 27.84 v 12.86 H 535.1 Z"
         fill="#f3ab0d"
         id="path145" /></g><path
       style="fill:#2c326c;fill-opacity:1;stroke:none;stroke-width:0.183141px;stroke-linecap:butt;stroke-linejoin:miter;stroke-opacity:1"
       d="m 722.02153,181.56428 c -1.58726,-2.57063 -2.1352,-15.09846 -7.90211,-15.42106 -6.8366,-0.38243 -6.67146,10.3942 -9.19294,10.05275 -6.988,0.46245 -2.5356,-9.95296 -7.53254,-10.98835 -11.37687,-0.90239 -20.95787,24.38124 -20.95787,24.38124 0,0 -3.46924,-17.31886 -9.6292,-23.1931 -7.03047,-5.37012 -11.31083,0.43716 -11.31083,0.43716 l -2.72516,3.34651 c -4.13436,-0.21003 -6.46661,3.93341 -6.46661,3.93341 -0.0719,2.2043 2.91614,2.61078 2.91614,2.61078 0,0 2.20759,-0.24401 3.51114,0.50903 2.88827,1.8274 3.78828,3.79554 3.78828,3.79554 2.58717,21.44316 -0.41627,18.30816 11.4034,32.36726 2.79402,3.26144 6.95257,3.13604 6.95257,3.13604 l 20.39463,1.38491 c 0,0 -0.24589,-2.92955 0.56135,-3.62552 0,0 5.44625,-3.36087 8.65974,-2.51414 3.40518,1.17779 6.00986,7.06864 6.00986,7.06864 l 14.56412,1.53776 c 0,0 2.59435,-1.7791 2.76953,-3.30592 0.3568,-3.56701 -0.95319,-4.65026 -0.83316,-6.58904 0.37443,-5.38652 1.2601,-9.08402 1.51625,-10.31246 0,0 0.33563,3.35713 1.78866,5.65392 -0.21142,2.20561 0.0967,8.47418 0.0967,8.47418 l 0.50974,-6.26946 c 0.67922,-5.88599 -1.87407,-11.28514 -1.87407,-11.28514 0,0 -0.58973,-7.41114 -2.80142,-10.29426 -1.57294,-2.36276 -2.5241,-2.0056 -4.21617,-4.89068 z"
       id="path10447"
       sodipodi:nodetypes="cscccccccccccccccccccccccccc" /><rect
       style="font-variation-settings:'wght' 700;fill:#f3ab0d;fill-opacity:1;fill-rule:evenodd;stroke:none;stroke-linejoin:round"
       id="rect5198"
       width="820"
       height="231"
       x="1.3144531e-05"
       y="231" /><path
       style="fill:#f3ab0d;fill-opacity:1;stroke:none;stroke-width:1px;stroke-linecap:butt;stroke-linejoin:miter;stroke-opacity:1"
       d="m 0,230.99999 410,-45.51101 410,45.51101 z"
       id="path6028" /><path
       style="fill:#e9a30b;fill-opacity:1;stroke:none;stroke-width:1px;stroke-linecap:butt;stroke-linejoin:miter;stroke-opacity:1"
       d="M 0,231 410,185.48899 0,346.5 Z"
       id="path6756" /><path
       style="fill:#fbb10d;fill-opacity:1;stroke:none;stroke-width:1px;stroke-linecap:butt;stroke-linejoin:miter;stroke-opacity:1"
       d="M 410,185.48899 200.86761,462 H 0 V 346.5 Z"
       id="path6758" /><path
       style="fill:#e9a30b;fill-opacity:1;stroke:none;stroke-width:1px;stroke-linecap:butt;stroke-linejoin:miter;stroke-opacity:1"
       d="M 410,185.48899 820,462 V 231 Z"
       id="path6793" /><text
       xml:space="preserve"
       style="font-style:normal;font-weight:normal;font-size:85.7607px;line-height:1.25;font-family:sans-serif;fill:#ffffff;fill-opacity:1;stroke:none;stroke-width:2.144;stroke-dasharray:none"
       x="197.88733"
       y="341.73154"
       id="text1855"
       transform="scale(1.0177622,0.98254778)"><tspan
         sodipodi:role="line"
         id="tspan1853"
         x="197.88733"
         y="341.73154"
         style="font-style:normal;font-variant:normal;font-weight:normal;font-stretch:normal;font-size:85.7607px;font-family:Cantarell;-inkscape-font-specification:'Cantarell, @wght=700';font-variant-ligatures:normal;font-variant-caps:normal;font-variant-numeric:normal;font-variant-east-asian:normal;font-variation-settings:'wght' 700;fill:#ffffff;stroke-width:2.144;stroke-dasharray:none">Arch Linux</tspan></text></g></svg>
